<?xml version="1.0" encoding="UTF-8"?>

<!DOCTYPE svg PUBLIC '-//W3C//DTD SVG 1.0//EN' 'http://www.w3.org/TR/2001/REC-SVG-20010904/DTD/svg10.dtd'>
<svg style="fill-opacity:1; color-rendering:auto; color-interpolation:auto; text-rendering:auto; stroke:black; stroke-linecap:square; stroke-miterlimit:10; shape-rendering:auto; stroke-opacity:1; fill:black; stroke-dasharray:none; font-weight:normal; stroke-width:1; font-family:&apos;Dialog&apos;; font-style:normal; stroke-linejoin:miter; font-size:12; stroke-dashoffset:0; image-rendering:auto;" xmlns="http://www.w3.org/2000/svg" width="2062.0" xmlns:xlink="http://www.w3.org/1999/xlink" height="224.0">
  <!--Generated by the Batik Graphics2D SVG Generator-->
  <defs id="genericDefs" />
  <g>
    <g style="fill:white; stroke:white;">
      <rect x="0" y="0" width="600" style="stroke:none;" height="300" />
    </g>
    <g style="font-family:sans-serif; font-size:14;">
      <text xml:space="preserve" x="280" y="72" style="stroke:none;">Comp</text>
      <text xml:space="preserve" x="33" y="222" style="stroke:none;">WeatherSANDAREP0</text>
      <text xml:space="preserve" x="144" y="222" style="stroke:none;">MADSANDAREP0</text>
      <text xml:space="preserve" x="244" y="222" style="stroke:none;">MADSANDAREP1</text>
      <text xml:space="preserve" x="344" y="222" style="stroke:none;">MADSANDAREP2</text>
      <text xml:space="preserve" x="444" y="222" style="stroke:none;">MADSANDAREP3</text>
      <text xml:space="preserve" x="544" y="222" style="stroke:none;">MADSANDAREP4</text>
      <text xml:space="preserve" x="644" y="222" style="stroke:none;">MADSANDAREP5</text>
      <text xml:space="preserve" x="744" y="222" style="stroke:none;">MADSANDAREP6</text>
      <text xml:space="preserve" x="844" y="222" style="stroke:none;">MADSANDAREP7</text>
      <text xml:space="preserve" x="944" y="222" style="stroke:none;">MADSANDAREP8</text>
      <text xml:space="preserve" x="1044" y="222" style="stroke:none;">MADSANDAREP9</text>
      <text xml:space="preserve" x="1140" y="222" style="stroke:none;">MADSANDAREP10</text>
      <text xml:space="preserve" x="1240" y="222" style="stroke:none;">MADSANDAREP11</text>
      <text xml:space="preserve" x="1340" y="222" style="stroke:none;">MADSANDAREP12</text>
      <text xml:space="preserve" x="1440" y="222" style="stroke:none;">MADSANDAREP13</text>
      <text xml:space="preserve" x="1540" y="222" style="stroke:none;">MADSANDAREP14</text>
      <text xml:space="preserve" x="1640" y="222" style="stroke:none;">MADSANDAREP15</text>
      <text xml:space="preserve" x="1740" y="222" style="stroke:none;">MADSANDAREP16</text>
      <text xml:space="preserve" x="1840" y="222" style="stroke:none;">MADSANDAREP17</text>
      <text xml:space="preserve" x="1940" y="222" style="stroke:none;">MADSANDAREP18</text>
      <text xml:space="preserve" x="280" y="72" style="stroke:none;">Comp</text>
      <text xml:space="preserve" x="33" y="222" style="stroke:none;">WeatherSANDAREP0</text>
      <text xml:space="preserve" x="144" y="222" style="stroke:none;">MADSANDAREP0</text>
      <text xml:space="preserve" x="244" y="222" style="stroke:none;">MADSANDAREP1</text>
      <text xml:space="preserve" x="344" y="222" style="stroke:none;">MADSANDAREP2</text>
      <text xml:space="preserve" x="444" y="222" style="stroke:none;">MADSANDAREP3</text>
      <text xml:space="preserve" x="544" y="222" style="stroke:none;">MADSANDAREP4</text>
      <text xml:space="preserve" x="644" y="222" style="stroke:none;">MADSANDAREP5</text>
      <text xml:space="preserve" x="744" y="222" style="stroke:none;">MADSANDAREP6</text>
      <text xml:space="preserve" x="844" y="222" style="stroke:none;">MADSANDAREP7</text>
      <text xml:space="preserve" x="944" y="222" style="stroke:none;">MADSANDAREP8</text>
      <text xml:space="preserve" x="1044" y="222" style="stroke:none;">MADSANDAREP9</text>
      <text xml:space="preserve" x="1140" y="222" style="stroke:none;">MADSANDAREP10</text>
      <text xml:space="preserve" x="1240" y="222" style="stroke:none;">MADSANDAREP11</text>
      <text xml:space="preserve" x="1340" y="222" style="stroke:none;">MADSANDAREP12</text>
      <text xml:space="preserve" x="1440" y="222" style="stroke:none;">MADSANDAREP13</text>
      <text xml:space="preserve" x="1540" y="222" style="stroke:none;">MADSANDAREP14</text>
      <text xml:space="preserve" x="1640" y="222" style="stroke:none;">MADSANDAREP15</text>
      <text xml:space="preserve" x="1740" y="222" style="stroke:none;">MADSANDAREP16</text>
      <text xml:space="preserve" x="1840" y="222" style="stroke:none;">MADSANDAREP17</text>
      <text xml:space="preserve" x="1940" y="222" style="stroke:none;">MADSANDAREP18</text>
      <line x1="300" x2="100" y1="50" style="fill:none;" y2="200" />
      <line x1="300" x2="200" y1="50" style="fill:none;" y2="200" />
      <line x1="300" x2="300" y1="50" style="fill:none;" y2="200" />
      <line x1="300" x2="400" y1="50" style="fill:none;" y2="200" />
      <line x1="300" x2="500" y1="50" style="fill:none;" y2="200" />
      <line x1="300" x2="600" y1="50" style="fill:none;" y2="200" />
      <line x1="300" x2="700" y1="50" style="fill:none;" y2="200" />
      <line x1="300" x2="800" y1="50" style="fill:none;" y2="200" />
      <line x1="300" x2="900" y1="50" style="fill:none;" y2="200" />
      <line x1="300" x2="1000" y1="50" style="fill:none;" y2="200" />
      <line x1="300" x2="1100" y1="50" style="fill:none;" y2="200" />
      <line x1="300" x2="1200" y1="50" style="fill:none;" y2="200" />
      <line x1="300" x2="1300" y1="50" style="fill:none;" y2="200" />
      <line x1="300" x2="1400" y1="50" style="fill:none;" y2="200" />
      <line x1="300" x2="1500" y1="50" style="fill:none;" y2="200" />
      <line x1="300" x2="1600" y1="50" style="fill:none;" y2="200" />
      <line x1="300" x2="1700" y1="50" style="fill:none;" y2="200" />
      <line x1="300" x2="1800" y1="50" style="fill:none;" y2="200" />
      <line x1="300" x2="1900" y1="50" style="fill:none;" y2="200" />
      <line x1="300" x2="2000" y1="50" style="fill:none;" y2="200" />
      <rect x="250" y="41" width="101" style="fill:blue; stroke:none;" rx="4" ry="4" height="19" />
      <text x="287" y="55" style="fill:white; stroke:none;" xml:space="preserve">Join</text>
      <rect x="50" y="191" width="101" style="fill:rgb(64,64,64); stroke:none;" rx="4" ry="4" height="19" />
      <text x="66" y="205" style="fill:white; stroke:none;" xml:space="preserve">Submodel</text>
      <rect x="150" y="191" width="101" style="fill:rgb(64,64,64); stroke:none;" rx="4" ry="4" height="19" />
      <text x="166" y="205" style="fill:white; stroke:none;" xml:space="preserve">Submodel</text>
      <rect x="250" y="191" width="101" style="fill:rgb(64,64,64); stroke:none;" rx="4" ry="4" height="19" />
      <text x="266" y="205" style="fill:white; stroke:none;" xml:space="preserve">Submodel</text>
      <rect x="350" y="191" width="101" style="fill:rgb(64,64,64); stroke:none;" rx="4" ry="4" height="19" />
      <text x="366" y="205" style="fill:white; stroke:none;" xml:space="preserve">Submodel</text>
      <rect x="450" y="191" width="101" style="fill:rgb(64,64,64); stroke:none;" rx="4" ry="4" height="19" />
      <text x="466" y="205" style="fill:white; stroke:none;" xml:space="preserve">Submodel</text>
      <rect x="550" y="191" width="101" style="fill:rgb(64,64,64); stroke:none;" rx="4" ry="4" height="19" />
      <text x="566" y="205" style="fill:white; stroke:none;" xml:space="preserve">Submodel</text>
      <rect x="650" y="191" width="101" style="fill:rgb(64,64,64); stroke:none;" rx="4" ry="4" height="19" />
      <text x="666" y="205" style="fill:white; stroke:none;" xml:space="preserve">Submodel</text>
      <rect x="750" y="191" width="101" style="fill:rgb(64,64,64); stroke:none;" rx="4" ry="4" height="19" />
      <text x="766" y="205" style="fill:white; stroke:none;" xml:space="preserve">Submodel</text>
      <rect x="850" y="191" width="101" style="fill:rgb(64,64,64); stroke:none;" rx="4" ry="4" height="19" />
      <text x="866" y="205" style="fill:white; stroke:none;" xml:space="preserve">Submodel</text>
      <rect x="950" y="191" width="101" style="fill:rgb(64,64,64); stroke:none;" rx="4" ry="4" height="19" />
      <text x="966" y="205" style="fill:white; stroke:none;" xml:space="preserve">Submodel</text>
      <rect x="1050" y="191" width="101" style="fill:rgb(64,64,64); stroke:none;" rx="4" ry="4" height="19" />
      <text x="1066" y="205" style="fill:white; stroke:none;" xml:space="preserve">Submodel</text>
      <rect x="1150" y="191" width="101" style="fill:rgb(64,64,64); stroke:none;" rx="4" ry="4" height="19" />
      <text x="1166" y="205" style="fill:white; stroke:none;" xml:space="preserve">Submodel</text>
      <rect x="1250" y="191" width="101" style="fill:rgb(64,64,64); stroke:none;" rx="4" ry="4" height="19" />
      <text x="1266" y="205" style="fill:white; stroke:none;" xml:space="preserve">Submodel</text>
      <rect x="1350" y="191" width="101" style="fill:rgb(64,64,64); stroke:none;" rx="4" ry="4" height="19" />
      <text x="1366" y="205" style="fill:white; stroke:none;" xml:space="preserve">Submodel</text>
      <rect x="1450" y="191" width="101" style="fill:rgb(64,64,64); stroke:none;" rx="4" ry="4" height="19" />
      <text x="1466" y="205" style="fill:white; stroke:none;" xml:space="preserve">Submodel</text>
      <rect x="1550" y="191" width="101" style="fill:rgb(64,64,64); stroke:none;" rx="4" ry="4" height="19" />
      <text x="1566" y="205" style="fill:white; stroke:none;" xml:space="preserve">Submodel</text>
      <rect x="1650" y="191" width="101" style="fill:rgb(64,64,64); stroke:none;" rx="4" ry="4" height="19" />
      <text x="1666" y="205" style="fill:white; stroke:none;" xml:space="preserve">Submodel</text>
      <rect x="1750" y="191" width="101" style="fill:rgb(64,64,64); stroke:none;" rx="4" ry="4" height="19" />
      <text x="1766" y="205" style="fill:white; stroke:none;" xml:space="preserve">Submodel</text>
      <rect x="1850" y="191" width="101" style="fill:rgb(64,64,64); stroke:none;" rx="4" ry="4" height="19" />
      <text x="1866" y="205" style="fill:white; stroke:none;" xml:space="preserve">Submodel</text>
      <rect x="1950" y="191" width="101" style="fill:rgb(64,64,64); stroke:none;" rx="4" ry="4" height="19" />
      <text x="1966" y="205" style="fill:white; stroke:none;" xml:space="preserve">Submodel</text>
    </g>
  </g>
</svg>
