<?xml version="1.0" encoding="UTF-8"?>

<!DOCTYPE svg PUBLIC '-//W3C//DTD SVG 1.0//EN' 'http://www.w3.org/TR/2001/REC-SVG-20010904/DTD/svg10.dtd'>
<svg style="fill-opacity:1; color-rendering:auto; color-interpolation:auto; text-rendering:auto; stroke:black; stroke-linecap:square; stroke-miterlimit:10; shape-rendering:auto; stroke-opacity:1; fill:black; stroke-dasharray:none; font-weight:normal; stroke-width:1; font-family:&apos;Dialog&apos;; font-style:normal; stroke-linejoin:miter; font-size:12; stroke-dashoffset:0; image-rendering:auto;" xmlns="http://www.w3.org/2000/svg" width="546.0" xmlns:xlink="http://www.w3.org/1999/xlink" height="184.0">
  <!--Generated by the Batik Graphics2D SVG Generator-->
  <defs id="genericDefs" />
  <g>
    <g style="fill:white; stroke:white;">
      <rect x="0" y="0" width="1037" style="stroke:none;" height="583" />
    </g>
    <g style="font-family:sans-serif; font-size:14;">
      <text xml:space="preserve" x="509" y="147" style="stroke:none;">NOH</text>
      <text xml:space="preserve" x="472" y="147" style="stroke:none;">HOn</text>
      <text xml:space="preserve" x="130" y="35" style="stroke:none;">NW</text>
      <text xml:space="preserve" x="112" y="71" style="stroke:none;">F</text>
      <text xml:space="preserve" x="2" y="71" style="stroke:none;">NF</text>
      <text xml:space="preserve" x="319" y="147" style="stroke:none;">WF</text>
      <text xml:space="preserve" x="0" y="150" style="stroke:none;">TU</text>
      <text xml:space="preserve" x="393" y="41" style="stroke:none;">UA</text>
      <text xml:space="preserve" x="247" y="65" style="stroke:none;">FSys</text>
      <text xml:space="preserve" x="398" y="76" style="stroke:none;">R</text>
      <text xml:space="preserve" x="506" y="51" style="stroke:none;">NUA</text>
      <text xml:space="preserve" x="260" y="149" style="stroke:none;">T</text>
      <text xml:space="preserve" x="231" y="149" style="stroke:none;">H</text>
      <text xml:space="preserve" x="287" y="148" style="stroke:none;">DP</text>
      <text xml:space="preserve" x="192" y="149" style="stroke:none;">T0d</text>
      <text xml:space="preserve" x="169" y="148" style="stroke:none;">te</text>
      <text xml:space="preserve" x="34" y="150" style="stroke:none;">isTU</text>
      <text xml:space="preserve" x="295" y="65" style="stroke:none;">isR</text>
      <text xml:space="preserve" x="349" y="147" style="stroke:none;">isWF</text>
      <text xml:space="preserve" x="71" y="35" style="stroke:none;">incNW</text>
      <text xml:space="preserve" x="181" y="71" style="stroke:none;">decNW</text>
      <text xml:space="preserve" x="118" y="118" style="stroke:none;">Var0</text>
      <text xml:space="preserve" x="116" y="182" style="stroke:none;">Var1</text>
      <text xml:space="preserve" x="420" y="147" style="stroke:none;">OnOff</text>
      <text xml:space="preserve" x="473" y="51" style="stroke:none;">ER</text>
      <text xml:space="preserve" x="51" y="76" style="stroke:none;">CF</text>
      <text xml:space="preserve" x="153" y="76" style="stroke:none;">CR</text>
      <text xml:space="preserve" x="433" y="65" style="stroke:none;">TR</text>
      <text xml:space="preserve" x="384" y="152" style="stroke:none;">tOO</text>
      <text xml:space="preserve" x="77" y="155" style="stroke:none;">tTU</text>
      <text xml:space="preserve" x="338" y="70" style="stroke:none;">tR</text>
      <line x1="487" x2="486" y1="125" style="fill:none;" y2="125" />
      <line x1="486" x2="483" y1="125" style="fill:none;" y2="126" />
      <line x1="483" x2="480" y1="126" style="fill:none;" y2="126" />
      <line x1="480" x2="477" y1="126" style="fill:none;" y2="128" />
      <line x1="477" x2="474" y1="128" style="fill:none;" y2="131" />
      <line x1="474" x2="472" y1="131" style="fill:none;" y2="132" />
      <line x1="472" x2="471" y1="132" style="fill:none;" y2="134" />
      <line x1="471" x2="467" y1="134" style="fill:none;" y2="145" />
      <line x1="467" x2="466" y1="145" style="fill:none;" y2="150" />
      <line x1="466" x2="465" y1="150" style="fill:none;" y2="153" />
      <line x1="465" x2="464" y1="153" style="fill:none;" y2="155" />
      <line x1="464" x2="462" y1="155" style="fill:none;" y2="157" />
      <line x1="462" x2="460" y1="157" style="fill:none;" y2="158" />
      <line x1="460" x2="454" y1="158" style="fill:none;" y2="161" />
      <line x1="454" x2="438" y1="161" style="fill:none;" y2="163" />
      <line x1="438" x2="415" y1="163" style="fill:none;" y2="164" />
      <line x1="415" x2="385" y1="164" style="fill:none;" y2="164" />
      <line x1="385" x2="350" y1="164" style="fill:none;" y2="163" />
      <line x1="350" x2="335" y1="163" style="fill:none;" y2="162" />
      <line x1="335" x2="323" y1="162" style="fill:none;" y2="159" />
      <line x1="323" x2="319" y1="159" style="fill:none;" y2="157" />
      <line x1="319" x2="316" y1="157" style="fill:none;" y2="154" />
      <line x1="316" x2="314" y1="154" style="fill:none;" y2="152" />
      <line x1="314" x2="312" y1="152" style="fill:none;" y2="148" />
      <line x1="312" x2="312" y1="148" style="fill:none;" y2="130" />
      <line x1="312" x2="315" y1="130" style="fill:none;" y2="105" />
      <line x1="315" x2="318" y1="105" style="fill:none;" y2="81" />
      <line x1="318" x2="319" y1="81" style="fill:none;" y2="65" />
      <line x1="319" x2="319" y1="65" style="fill:none;" y2="60" />
      <line x1="319" x2="318" y1="60" style="fill:none;" y2="55" />
      <line x1="318" x2="315" y1="55" style="fill:none;" y2="51" />
      <line x1="315" x2="312" y1="51" style="fill:none;" y2="48" />
      <line x1="312" x2="307" y1="48" style="fill:none;" y2="44" />
      <line x1="307" x2="305" y1="44" style="fill:none;" y2="43" />
      <line x1="440" x2="440" y1="125" style="fill:none;" y2="124" />
      <line x1="440" x2="444" y1="124" style="fill:none;" y2="122" />
      <line x1="444" x2="452" y1="122" style="fill:none;" y2="118" />
      <line x1="452" x2="466" y1="118" style="fill:none;" y2="113" />
      <line x1="466" x2="482" y1="113" style="fill:none;" y2="111" />
      <line x1="482" x2="498" y1="111" style="fill:none;" y2="113" />
      <line x1="498" x2="511" y1="113" style="fill:none;" y2="118" />
      <line x1="511" x2="520" y1="118" style="fill:none;" y2="122" />
      <line x1="520" x2="523" y1="122" style="fill:none;" y2="124" />
      <line x1="523" x2="524" y1="124" style="fill:none;" y2="125" />
      <line x1="440" x2="487" y1="125" style="fill:none;" y2="125" />
      <line x1="204" x2="204" y1="49" style="fill:none;" y2="48" />
      <line x1="204" x2="204" y1="48" style="fill:none;" y2="46" />
      <line x1="204" x2="204" y1="46" style="fill:none;" y2="39" />
      <line x1="204" x2="203" y1="39" style="fill:none;" y2="35" />
      <line x1="203" x2="202" y1="35" style="fill:none;" y2="31" />
      <line x1="202" x2="199" y1="31" style="fill:none;" y2="26" />
      <line x1="199" x2="195" y1="26" style="fill:none;" y2="22" />
      <line x1="195" x2="190" y1="22" style="fill:none;" y2="19" />
      <line x1="190" x2="183" y1="19" style="fill:none;" y2="16" />
      <line x1="183" x2="164" y1="16" style="fill:none;" y2="13" />
      <line x1="164" x2="148" y1="13" style="fill:none;" y2="13" />
      <line x1="148" x2="141" y1="13" style="fill:none;" y2="13" />
      <line x1="92" x2="141" y1="13" style="fill:none;" y2="13" />
      <line x1="440" x2="440" y1="125" style="fill:none;" y2="124" />
      <line x1="440" x2="445" y1="124" style="fill:none;" y2="121" />
      <line x1="445" x2="456" y1="121" style="fill:none;" y2="112" />
      <line x1="456" x2="474" y1="112" style="fill:none;" y2="101" />
      <line x1="474" x2="495" y1="101" style="fill:none;" y2="89" />
      <line x1="495" x2="515" y1="89" style="fill:none;" y2="78" />
      <line x1="515" x2="528" y1="78" style="fill:none;" y2="69" />
      <line x1="528" x2="533" y1="69" style="fill:none;" y2="65" />
      <line x1="533" x2="536" y1="65" style="fill:none;" y2="61" />
      <line x1="536" x2="538" y1="61" style="fill:none;" y2="56" />
      <line x1="538" x2="540" y1="56" style="fill:none;" y2="51" />
      <line x1="540" x2="541" y1="51" style="fill:none;" y2="38" />
      <line x1="541" x2="541" y1="38" style="fill:none;" y2="24" />
      <line x1="541" x2="539" y1="24" style="fill:none;" y2="18" />
      <line x1="539" x2="538" y1="18" style="fill:none;" y2="15" />
      <line x1="538" x2="537" y1="15" style="fill:none;" y2="13" />
      <line x1="537" x2="536" y1="13" style="fill:none;" y2="11" />
      <line x1="536" x2="534" y1="11" style="fill:none;" y2="10" />
      <line x1="534" x2="533" y1="10" style="fill:none;" y2="9" />
      <line x1="533" x2="529" y1="9" style="fill:none;" y2="7" />
      <line x1="529" x2="524" y1="7" style="fill:none;" y2="6" />
      <line x1="524" x2="474" y1="6" style="fill:none;" y2="4" />
      <line x1="474" x2="371" y1="4" style="fill:none;" y2="3" />
      <line x1="371" x2="260" y1="3" style="fill:none;" y2="4" />
      <line x1="260" x2="189" y1="4" style="fill:none;" y2="8" />
      <line x1="189" x2="155" y1="8" style="fill:none;" y2="11" />
      <line x1="155" x2="142" y1="11" style="fill:none;" y2="12" />
      <line x1="142" x2="141" y1="12" style="fill:none;" y2="13" />
      <line x1="60" x2="60" y1="49" style="fill:none;" y2="49" />
      <line x1="60" x2="63" y1="49" style="fill:none;" y2="49" />
      <line x1="63" x2="70" y1="49" style="fill:none;" y2="49" />
      <line x1="70" x2="80" y1="49" style="fill:none;" y2="49" />
      <line x1="80" x2="88" y1="49" style="fill:none;" y2="49" />
      <line x1="88" x2="94" y1="49" style="fill:none;" y2="49" />
      <line x1="94" x2="96" y1="49" style="fill:none;" y2="49" />
      <line x1="96" x2="97" y1="49" style="fill:none;" y2="49" />
      <polygon style="stroke:none;" points=" 106 49 97 45 97 53 106 49" />
      <line x1="106" x2="97" y1="49" style="fill:none;" y2="49" />
      <line x1="162" x2="161" y1="49" style="fill:none;" y2="49" />
      <line x1="161" x2="158" y1="49" style="fill:none;" y2="52" />
      <line x1="158" x2="149" y1="52" style="fill:none;" y2="60" />
      <line x1="149" x2="137" y1="60" style="fill:none;" y2="69" />
      <line x1="137" x2="122" y1="69" style="fill:none;" y2="76" />
      <line x1="122" x2="107" y1="76" style="fill:none;" y2="80" />
      <line x1="107" x2="94" y1="80" style="fill:none;" y2="81" />
      <line x1="94" x2="80" y1="81" style="fill:none;" y2="81" />
      <line x1="80" x2="63" y1="81" style="fill:none;" y2="81" />
      <line x1="63" x2="48" y1="81" style="fill:none;" y2="79" />
      <line x1="48" x2="42" y1="79" style="fill:none;" y2="77" />
      <line x1="42" x2="38" y1="77" style="fill:none;" y2="75" />
      <line x1="38" x2="34" y1="75" style="fill:none;" y2="70" />
      <line x1="34" x2="32" y1="70" style="fill:none;" y2="68" />
      <line x1="32" x2="31" y1="68" style="fill:none;" y2="67" />
      <line x1="31" x2="31" y1="67" style="fill:none;" y2="67" />
      <polygon style="stroke:none;" points=" 21 58 25 67 30 61 21 58" />
      <line x1="21" x2="31" y1="58" style="fill:none;" y2="67" />
      <line x1="440" x2="439" y1="125" style="fill:none;" y2="124" />
      <line x1="439" x2="435" y1="124" style="fill:none;" y2="120" />
      <line x1="435" x2="425" y1="120" style="fill:none;" y2="109" />
      <line x1="425" x2="411" y1="109" style="fill:none;" y2="95" />
      <line x1="411" x2="396" y1="95" style="fill:none;" y2="81" />
      <line x1="396" x2="384" y1="81" style="fill:none;" y2="69" />
      <line x1="384" x2="381" y1="69" style="fill:none;" y2="63" />
      <line x1="381" x2="379" y1="63" style="fill:none;" y2="59" />
      <line x1="379" x2="379" y1="59" style="fill:none;" y2="50" />
      <line x1="379" x2="379" y1="50" style="fill:none;" y2="42" />
      <line x1="379" x2="380" y1="42" style="fill:none;" y2="37" />
      <line x1="380" x2="383" y1="37" style="fill:none;" y2="33" />
      <line x1="383" x2="391" y1="33" style="fill:none;" y2="26" />
      <line x1="391" x2="399" y1="26" style="fill:none;" y2="21" />
      <line x1="399" x2="402" y1="21" style="fill:none;" y2="19" />
      <line x1="402" x2="403" y1="19" style="fill:none;" y2="19" />
      <line x1="440" x2="440" y1="125" style="fill:none;" y2="124" />
      <line x1="440" x2="440" y1="124" style="fill:none;" y2="121" />
      <line x1="440" x2="441" y1="121" style="fill:none;" y2="117" />
      <line x1="441" x2="441" y1="117" style="fill:none;" y2="113" />
      <line x1="441" x2="441" y1="113" style="fill:none;" y2="107" />
      <line x1="441" x2="439" y1="107" style="fill:none;" y2="101" />
      <line x1="439" x2="430" y1="101" style="fill:none;" y2="86" />
      <line x1="430" x2="418" y1="86" style="fill:none;" y2="72" />
      <line x1="418" x2="410" y1="72" style="fill:none;" y2="62" />
      <line x1="410" x2="405" y1="62" style="fill:none;" y2="56" />
      <line x1="405" x2="403" y1="56" style="fill:none;" y2="54" />
      <line x1="482" x2="482" y1="29" style="fill:none;" y2="28" />
      <line x1="482" x2="485" y1="28" style="fill:none;" y2="28" />
      <line x1="485" x2="491" y1="28" style="fill:none;" y2="27" />
      <line x1="491" x2="500" y1="27" style="fill:none;" y2="27" />
      <line x1="500" x2="510" y1="27" style="fill:none;" y2="27" />
      <line x1="510" x2="517" y1="27" style="fill:none;" y2="28" />
      <line x1="517" x2="520" y1="28" style="fill:none;" y2="28" />
      <line x1="520" x2="521" y1="28" style="fill:none;" y2="29" />
      <line x1="134" x2="136" y1="96" style="fill:none;" y2="96" />
      <line x1="136" x2="151" y1="96" style="fill:none;" y2="96" />
      <line x1="151" x2="186" y1="96" style="fill:none;" y2="96" />
      <line x1="186" x2="225" y1="96" style="fill:none;" y2="96" />
      <line x1="225" x2="249" y1="96" style="fill:none;" y2="97" />
      <line x1="249" x2="256" y1="97" style="fill:none;" y2="99" />
      <line x1="256" x2="258" y1="99" style="fill:none;" y2="100" />
      <line x1="258" x2="260" y1="100" style="fill:none;" y2="102" />
      <line x1="260" x2="261" y1="102" style="fill:none;" y2="104" />
      <line x1="261" x2="263" y1="104" style="fill:none;" y2="107" />
      <line x1="263" x2="264" y1="107" style="fill:none;" y2="112" />
      <line x1="264" x2="265" y1="112" style="fill:none;" y2="122" />
      <line x1="265" x2="265" y1="122" style="fill:none;" y2="126" />
      <line x1="265" x2="265" y1="126" style="fill:none;" y2="127" />
      <line x1="132" x2="133" y1="160" style="fill:none;" y2="159" />
      <line x1="133" x2="147" y1="159" style="fill:none;" y2="159" />
      <line x1="147" x2="177" y1="159" style="fill:none;" y2="157" />
      <line x1="177" x2="212" y1="157" style="fill:none;" y2="156" />
      <line x1="212" x2="235" y1="156" style="fill:none;" y2="155" />
      <line x1="235" x2="242" y1="155" style="fill:none;" y2="154" />
      <line x1="242" x2="247" y1="154" style="fill:none;" y2="152" />
      <line x1="247" x2="249" y1="152" style="fill:none;" y2="151" />
      <line x1="249" x2="250" y1="151" style="fill:none;" y2="150" />
      <line x1="250" x2="252" y1="150" style="fill:none;" y2="147" />
      <line x1="252" x2="255" y1="147" style="fill:none;" y2="141" />
      <line x1="255" x2="259" y1="141" style="fill:none;" y2="134" />
      <line x1="259" x2="263" y1="134" style="fill:none;" y2="129" />
      <line x1="263" x2="264" y1="129" style="fill:none;" y2="127" />
      <line x1="264" x2="265" y1="127" style="fill:none;" y2="127" />
      <line x1="440" x2="439" y1="125" style="fill:none;" y2="124" />
      <line x1="439" x2="436" y1="124" style="fill:none;" y2="120" />
      <line x1="436" x2="428" y1="120" style="fill:none;" y2="111" />
      <line x1="428" x2="422" y1="111" style="fill:none;" y2="106" />
      <line x1="422" x2="414" y1="106" style="fill:none;" y2="102" />
      <line x1="414" x2="396" y1="102" style="fill:none;" y2="96" />
      <line x1="396" x2="372" y1="96" style="fill:none;" y2="94" />
      <line x1="372" x2="344" y1="94" style="fill:none;" y2="95" />
      <line x1="344" x2="317" y1="95" style="fill:none;" y2="95" />
      <line x1="317" x2="297" y1="95" style="fill:none;" y2="96" />
      <line x1="297" x2="290" y1="96" style="fill:none;" y2="97" />
      <line x1="290" x2="286" y1="97" style="fill:none;" y2="98" />
      <line x1="286" x2="284" y1="98" style="fill:none;" y2="100" />
      <line x1="284" x2="278" y1="100" style="fill:none;" y2="104" />
      <line x1="278" x2="274" y1="104" style="fill:none;" y2="110" />
      <line x1="274" x2="267" y1="110" style="fill:none;" y2="121" />
      <line x1="267" x2="265" y1="121" style="fill:none;" y2="126" />
      <line x1="265" x2="265" y1="126" style="fill:none;" y2="127" />
      <line x1="134" x2="135" y1="96" style="fill:none;" y2="96" />
      <line x1="135" x2="149" y1="96" style="fill:none;" y2="96" />
      <line x1="149" x2="180" y1="96" style="fill:none;" y2="96" />
      <line x1="180" x2="212" y1="96" style="fill:none;" y2="101" />
      <line x1="212" x2="222" y1="101" style="fill:none;" y2="105" />
      <line x1="222" x2="226" y1="105" style="fill:none;" y2="108" />
      <line x1="226" x2="229" y1="108" style="fill:none;" y2="111" />
      <line x1="229" x2="234" y1="111" style="fill:none;" y2="121" />
      <line x1="234" x2="235" y1="121" style="fill:none;" y2="126" />
      <line x1="235" x2="236" y1="126" style="fill:none;" y2="127" />
      <line x1="132" x2="133" y1="160" style="fill:none;" y2="159" />
      <line x1="133" x2="146" y1="159" style="fill:none;" y2="159" />
      <line x1="146" x2="175" y1="159" style="fill:none;" y2="158" />
      <line x1="175" x2="205" y1="158" style="fill:none;" y2="156" />
      <line x1="205" x2="214" y1="156" style="fill:none;" y2="154" />
      <line x1="214" x2="217" y1="154" style="fill:none;" y2="153" />
      <line x1="217" x2="219" y1="153" style="fill:none;" y2="152" />
      <line x1="219" x2="221" y1="152" style="fill:none;" y2="150" />
      <line x1="221" x2="223" y1="150" style="fill:none;" y2="149" />
      <line x1="223" x2="225" y1="149" style="fill:none;" y2="145" />
      <line x1="225" x2="229" y1="145" style="fill:none;" y2="137" />
      <line x1="229" x2="234" y1="137" style="fill:none;" y2="130" />
      <line x1="234" x2="235" y1="130" style="fill:none;" y2="127" />
      <line x1="235" x2="236" y1="127" style="fill:none;" y2="127" />
      <line x1="134" x2="136" y1="96" style="fill:none;" y2="95" />
      <line x1="136" x2="156" y1="95" style="fill:none;" y2="95" />
      <line x1="156" x2="200" y1="95" style="fill:none;" y2="95" />
      <line x1="200" x2="248" y1="95" style="fill:none;" y2="96" />
      <line x1="248" x2="275" y1="96" style="fill:none;" y2="100" />
      <line x1="275" x2="282" y1="100" style="fill:none;" y2="103" />
      <line x1="282" x2="287" y1="103" style="fill:none;" y2="106" />
      <line x1="287" x2="290" y1="106" style="fill:none;" y2="110" />
      <line x1="290" x2="292" y1="110" style="fill:none;" y2="115" />
      <line x1="292" x2="295" y1="115" style="fill:none;" y2="122" />
      <line x1="295" x2="295" y1="122" style="fill:none;" y2="125" />
      <line x1="295" x2="296" y1="125" style="fill:none;" y2="126" />
      <line x1="132" x2="134" y1="160" style="fill:none;" y2="160" />
      <line x1="134" x2="153" y1="160" style="fill:none;" y2="160" />
      <line x1="153" x2="196" y1="160" style="fill:none;" y2="159" />
      <line x1="196" x2="241" y1="159" style="fill:none;" y2="158" />
      <line x1="241" x2="265" y1="158" style="fill:none;" y2="155" />
      <line x1="265" x2="271" y1="155" style="fill:none;" y2="152" />
      <line x1="271" x2="276" y1="152" style="fill:none;" y2="149" />
      <line x1="276" x2="285" y1="149" style="fill:none;" y2="139" />
      <line x1="285" x2="292" y1="139" style="fill:none;" y2="130" />
      <line x1="292" x2="295" y1="130" style="fill:none;" y2="126" />
      <line x1="295" x2="296" y1="126" style="fill:none;" y2="126" />
      <line x1="440" x2="439" y1="125" style="fill:none;" y2="124" />
      <line x1="439" x2="436" y1="124" style="fill:none;" y2="121" />
      <line x1="436" x2="432" y1="121" style="fill:none;" y2="118" />
      <line x1="432" x2="426" y1="118" style="fill:none;" y2="114" />
      <line x1="426" x2="418" y1="114" style="fill:none;" y2="110" />
      <line x1="418" x2="407" y1="110" style="fill:none;" y2="107" />
      <line x1="407" x2="377" y1="107" style="fill:none;" y2="103" />
      <line x1="377" x2="346" y1="103" style="fill:none;" y2="102" />
      <line x1="346" x2="325" y1="102" style="fill:none;" y2="103" />
      <line x1="325" x2="318" y1="103" style="fill:none;" y2="104" />
      <line x1="318" x2="312" y1="104" style="fill:none;" y2="107" />
      <line x1="312" x2="307" y1="107" style="fill:none;" y2="110" />
      <line x1="307" x2="303" y1="110" style="fill:none;" y2="114" />
      <line x1="303" x2="298" y1="114" style="fill:none;" y2="122" />
      <line x1="298" x2="296" y1="122" style="fill:none;" y2="125" />
      <line x1="296" x2="296" y1="125" style="fill:none;" y2="126" />
      <line x1="134" x2="135" y1="96" style="fill:none;" y2="96" />
      <line x1="135" x2="145" y1="96" style="fill:none;" y2="97" />
      <line x1="145" x2="168" y1="97" style="fill:none;" y2="99" />
      <line x1="168" x2="180" y1="99" style="fill:none;" y2="101" />
      <line x1="180" x2="191" y1="101" style="fill:none;" y2="105" />
      <line x1="191" x2="195" y1="105" style="fill:none;" y2="107" />
      <line x1="195" x2="198" y1="107" style="fill:none;" y2="109" />
      <line x1="198" x2="200" y1="109" style="fill:none;" y2="111" />
      <line x1="200" x2="202" y1="111" style="fill:none;" y2="114" />
      <line x1="202" x2="204" y1="114" style="fill:none;" y2="122" />
      <line x1="204" x2="204" y1="122" style="fill:none;" y2="126" />
      <line x1="204" x2="205" y1="126" style="fill:none;" y2="127" />
      <line x1="132" x2="133" y1="160" style="fill:none;" y2="160" />
      <line x1="133" x2="141" y1="160" style="fill:none;" y2="160" />
      <line x1="141" x2="160" y1="160" style="fill:none;" y2="159" />
      <line x1="160" x2="171" y1="159" style="fill:none;" y2="158" />
      <line x1="171" x2="175" y1="158" style="fill:none;" y2="157" />
      <line x1="175" x2="179" y1="157" style="fill:none;" y2="156" />
      <line x1="179" x2="182" y1="156" style="fill:none;" y2="154" />
      <line x1="182" x2="185" y1="154" style="fill:none;" y2="152" />
      <line x1="185" x2="186" y1="152" style="fill:none;" y2="149" />
      <line x1="186" x2="187" y1="149" style="fill:none;" y2="147" />
      <line x1="187" x2="190" y1="147" style="fill:none;" y2="137" />
      <line x1="190" x2="191" y1="137" style="fill:none;" y2="135" />
      <line x1="191" x2="192" y1="135" style="fill:none;" y2="133" />
      <line x1="192" x2="196" y1="133" style="fill:none;" y2="131" />
      <line x1="196" x2="202" y1="131" style="fill:none;" y2="128" />
      <line x1="202" x2="204" y1="128" style="fill:none;" y2="127" />
      <line x1="204" x2="205" y1="127" style="fill:none;" y2="127" />
      <line x1="134" x2="134" y1="96" style="fill:none;" y2="96" />
      <line x1="134" x2="139" y1="96" style="fill:none;" y2="97" />
      <line x1="139" x2="149" y1="97" style="fill:none;" y2="100" />
      <line x1="149" x2="155" y1="100" style="fill:none;" y2="103" />
      <line x1="155" x2="161" y1="103" style="fill:none;" y2="106" />
      <line x1="161" x2="166" y1="106" style="fill:none;" y2="110" />
      <line x1="166" x2="169" y1="110" style="fill:none;" y2="114" />
      <line x1="169" x2="174" y1="114" style="fill:none;" y2="122" />
      <line x1="174" x2="175" y1="122" style="fill:none;" y2="125" />
      <line x1="175" x2="176" y1="125" style="fill:none;" y2="126" />
      <line x1="132" x2="132" y1="160" style="fill:none;" y2="159" />
      <line x1="132" x2="137" y1="159" style="fill:none;" y2="158" />
      <line x1="137" x2="146" y1="158" style="fill:none;" y2="156" />
      <line x1="146" x2="152" y1="156" style="fill:none;" y2="154" />
      <line x1="152" x2="156" y1="154" style="fill:none;" y2="151" />
      <line x1="156" x2="158" y1="151" style="fill:none;" y2="149" />
      <line x1="158" x2="159" y1="149" style="fill:none;" y2="148" />
      <line x1="159" x2="161" y1="148" style="fill:none;" y2="144" />
      <line x1="161" x2="162" y1="144" style="fill:none;" y2="140" />
      <line x1="162" x2="163" y1="140" style="fill:none;" y2="137" />
      <line x1="163" x2="165" y1="137" style="fill:none;" y2="134" />
      <line x1="165" x2="168" y1="134" style="fill:none;" y2="131" />
      <line x1="168" x2="173" y1="131" style="fill:none;" y2="127" />
      <line x1="173" x2="175" y1="127" style="fill:none;" y2="126" />
      <line x1="175" x2="176" y1="126" style="fill:none;" y2="126" />
      <line x1="10" x2="49" y1="128" style="fill:none;" y2="128" />
      <line x1="296" x2="295" y1="126" style="fill:none;" y2="125" />
      <line x1="295" x2="295" y1="125" style="fill:none;" y2="121" />
      <line x1="295" x2="293" y1="121" style="fill:none;" y2="112" />
      <line x1="293" x2="291" y1="112" style="fill:none;" y2="98" />
      <line x1="291" x2="289" y1="98" style="fill:none;" y2="80" />
      <line x1="289" x2="288" y1="80" style="fill:none;" y2="71" />
      <line x1="288" x2="289" y1="71" style="fill:none;" y2="63" />
      <line x1="289" x2="291" y1="63" style="fill:none;" y2="56" />
      <line x1="291" x2="295" y1="56" style="fill:none;" y2="51" />
      <line x1="295" x2="301" y1="51" style="fill:none;" y2="45" />
      <line x1="301" x2="304" y1="45" style="fill:none;" y2="43" />
      <line x1="304" x2="305" y1="43" style="fill:none;" y2="43" />
      <line x1="262" x2="305" y1="43" style="fill:none;" y2="43" />
      <line x1="403" x2="402" y1="19" style="fill:none;" y2="18" />
      <line x1="402" x2="395" y1="18" style="fill:none;" y2="18" />
      <line x1="395" x2="379" y1="18" style="fill:none;" y2="18" />
      <line x1="379" x2="359" y1="18" style="fill:none;" y2="18" />
      <line x1="359" x2="342" y1="18" style="fill:none;" y2="18" />
      <line x1="342" x2="334" y1="18" style="fill:none;" y2="19" />
      <line x1="334" x2="327" y1="19" style="fill:none;" y2="22" />
      <line x1="327" x2="316" y1="22" style="fill:none;" y2="30" />
      <line x1="316" x2="308" y1="30" style="fill:none;" y2="38" />
      <line x1="308" x2="305" y1="38" style="fill:none;" y2="42" />
      <line x1="305" x2="305" y1="42" style="fill:none;" y2="43" />
      <line x1="265" x2="265" y1="127" style="fill:none;" y2="125" />
      <line x1="265" x2="267" y1="125" style="fill:none;" y2="118" />
      <line x1="267" x2="271" y1="118" style="fill:none;" y2="99" />
      <line x1="271" x2="275" y1="99" style="fill:none;" y2="78" />
      <line x1="275" x2="279" y1="78" style="fill:none;" y2="63" />
      <line x1="279" x2="281" y1="63" style="fill:none;" y2="58" />
      <line x1="281" x2="285" y1="58" style="fill:none;" y2="54" />
      <line x1="285" x2="293" y1="54" style="fill:none;" y2="48" />
      <line x1="293" x2="301" y1="48" style="fill:none;" y2="44" />
      <line x1="301" x2="304" y1="44" style="fill:none;" y2="43" />
      <line x1="304" x2="305" y1="43" style="fill:none;" y2="43" />
      <line x1="521" x2="520" y1="29" style="fill:none;" y2="28" />
      <line x1="520" x2="518" y1="28" style="fill:none;" y2="26" />
      <line x1="518" x2="513" y1="26" style="fill:none;" y2="20" />
      <line x1="513" x2="509" y1="20" style="fill:none;" y2="17" />
      <line x1="509" x2="505" y1="17" style="fill:none;" y2="14" />
      <line x1="505" x2="500" y1="14" style="fill:none;" y2="12" />
      <line x1="500" x2="495" y1="12" style="fill:none;" y2="10" />
      <line x1="495" x2="481" y1="10" style="fill:none;" y2="9" />
      <line x1="481" x2="464" y1="9" style="fill:none;" y2="9" />
      <line x1="464" x2="435" y1="9" style="fill:none;" y2="8" />
      <line x1="435" x2="391" y1="8" style="fill:none;" y2="7" />
      <line x1="391" x2="348" y1="7" style="fill:none;" y2="8" />
      <line x1="348" x2="320" y1="8" style="fill:none;" y2="11" />
      <line x1="320" x2="312" y1="11" style="fill:none;" y2="14" />
      <line x1="312" x2="309" y1="14" style="fill:none;" y2="16" />
      <line x1="309" x2="307" y1="16" style="fill:none;" y2="18" />
      <line x1="307" x2="305" y1="18" style="fill:none;" y2="21" />
      <line x1="305" x2="304" y1="21" style="fill:none;" y2="23" />
      <line x1="304" x2="303" y1="23" style="fill:none;" y2="29" />
      <line x1="303" x2="304" y1="29" style="fill:none;" y2="38" />
      <line x1="304" x2="304" y1="38" style="fill:none;" y2="42" />
      <line x1="304" x2="305" y1="42" style="fill:none;" y2="43" />
      <line x1="329" x2="364" y1="125" style="fill:none;" y2="125" />
      <line x1="60" x2="60" y1="49" style="fill:none;" y2="48" />
      <line x1="60" x2="60" y1="48" style="fill:none;" y2="44" />
      <line x1="60" x2="61" y1="44" style="fill:none;" y2="33" />
      <line x1="61" x2="63" y1="33" style="fill:none;" y2="28" />
      <line x1="63" x2="64" y1="28" style="fill:none;" y2="25" />
      <line x1="64" x2="66" y1="25" style="fill:none;" y2="23" />
      <line x1="66" x2="68" y1="23" style="fill:none;" y2="20" />
      <line x1="68" x2="71" y1="20" style="fill:none;" y2="19" />
      <line x1="71" x2="76" y1="19" style="fill:none;" y2="16" />
      <line x1="76" x2="87" y1="16" style="fill:none;" y2="14" />
      <line x1="87" x2="91" y1="14" style="fill:none;" y2="13" />
      <line x1="91" x2="92" y1="13" style="fill:none;" y2="13" />
      <line x1="162" x2="204" y1="49" style="fill:none;" y2="49" />
      <line x1="88" x2="88" y1="122" style="fill:none;" y2="121" />
      <line x1="88" x2="90" y1="121" style="fill:none;" y2="117" />
      <line x1="90" x2="95" y1="117" style="fill:none;" y2="108" />
      <line x1="95" x2="99" y1="108" style="fill:none;" y2="103" />
      <line x1="99" x2="101" y1="103" style="fill:none;" y2="100" />
      <line x1="101" x2="104" y1="100" style="fill:none;" y2="99" />
      <line x1="104" x2="110" y1="99" style="fill:none;" y2="96" />
      <line x1="110" x2="117" y1="96" style="fill:none;" y2="95" />
      <line x1="117" x2="128" y1="95" style="fill:none;" y2="95" />
      <line x1="128" x2="133" y1="95" style="fill:none;" y2="95" />
      <line x1="133" x2="134" y1="95" style="fill:none;" y2="96" />
      <line x1="88" x2="88" y1="134" style="fill:none;" y2="134" />
      <line x1="88" x2="91" y1="134" style="fill:none;" y2="134" />
      <line x1="91" x2="99" y1="134" style="fill:none;" y2="136" />
      <line x1="99" x2="110" y1="136" style="fill:none;" y2="141" />
      <line x1="110" x2="120" y1="141" style="fill:none;" y2="149" />
      <line x1="120" x2="128" y1="149" style="fill:none;" y2="156" />
      <line x1="128" x2="131" y1="156" style="fill:none;" y2="159" />
      <line x1="131" x2="132" y1="159" style="fill:none;" y2="160" />
      <line x1="397" x2="440" y1="125" style="fill:none;" y2="125" />
      <line x1="442" x2="442" y1="38" style="fill:none;" y2="38" />
      <line x1="442" x2="446" y1="38" style="fill:none;" y2="38" />
      <line x1="446" x2="449" y1="38" style="fill:none;" y2="38" />
      <line x1="449" x2="454" y1="38" style="fill:none;" y2="39" />
      <line x1="454" x2="456" y1="39" style="fill:none;" y2="41" />
      <line x1="456" x2="458" y1="41" style="fill:none;" y2="42" />
      <line x1="458" x2="460" y1="42" style="fill:none;" y2="44" />
      <line x1="460" x2="462" y1="44" style="fill:none;" y2="47" />
      <line x1="462" x2="465" y1="47" style="fill:none;" y2="54" />
      <line x1="465" x2="466" y1="54" style="fill:none;" y2="63" />
      <line x1="466" x2="467" y1="63" style="fill:none;" y2="82" />
      <line x1="467" x2="465" y1="82" style="fill:none;" y2="89" />
      <line x1="465" x2="464" y1="89" style="fill:none;" y2="95" />
      <line x1="464" x2="458" y1="95" style="fill:none;" y2="105" />
      <line x1="458" x2="450" y1="105" style="fill:none;" y2="114" />
      <line x1="450" x2="443" y1="114" style="fill:none;" y2="121" />
      <line x1="443" x2="440" y1="121" style="fill:none;" y2="124" />
      <line x1="440" x2="440" y1="124" style="fill:none;" y2="125" />
      <line x1="442" x2="442" y1="38" style="fill:none;" y2="37" />
      <line x1="442" x2="444" y1="37" style="fill:none;" y2="35" />
      <line x1="444" x2="449" y1="35" style="fill:none;" y2="30" />
      <line x1="449" x2="452" y1="30" style="fill:none;" y2="27" />
      <line x1="452" x2="454" y1="27" style="fill:none;" y2="26" />
      <line x1="454" x2="457" y1="26" style="fill:none;" y2="25" />
      <line x1="457" x2="462" y1="25" style="fill:none;" y2="25" />
      <line x1="462" x2="468" y1="25" style="fill:none;" y2="25" />
      <line x1="468" x2="477" y1="25" style="fill:none;" y2="27" />
      <line x1="477" x2="481" y1="27" style="fill:none;" y2="28" />
      <line x1="481" x2="482" y1="28" style="fill:none;" y2="29" />
      <line x1="11" x2="11" y1="49" style="fill:none;" y2="49" />
      <line x1="11" x2="14" y1="49" style="fill:none;" y2="49" />
      <line x1="14" x2="21" y1="49" style="fill:none;" y2="49" />
      <line x1="21" x2="30" y1="49" style="fill:none;" y2="49" />
      <line x1="30" x2="39" y1="49" style="fill:none;" y2="49" />
      <line x1="39" x2="45" y1="49" style="fill:none;" y2="49" />
      <line x1="45" x2="47" y1="49" style="fill:none;" y2="49" />
      <line x1="47" x2="48" y1="49" style="fill:none;" y2="49" />
      <polygon style="stroke:none;" points=" 57 49 48 45 48 53 57 49" />
      <line x1="57" x2="48" y1="49" style="fill:none;" y2="49" />
      <line x1="116" x2="116" y1="49" style="fill:none;" y2="49" />
      <line x1="116" x2="120" y1="49" style="fill:none;" y2="49" />
      <line x1="120" x2="130" y1="49" style="fill:none;" y2="49" />
      <line x1="130" x2="140" y1="49" style="fill:none;" y2="49" />
      <line x1="140" x2="146" y1="49" style="fill:none;" y2="49" />
      <line x1="146" x2="149" y1="49" style="fill:none;" y2="49" />
      <line x1="149" x2="149" y1="49" style="fill:none;" y2="49" />
      <line x1="149" x2="150" y1="49" style="fill:none;" y2="49" />
      <polygon style="stroke:none;" points=" 159 49 150 45 150 53 159 49" />
      <line x1="159" x2="150" y1="49" style="fill:none;" y2="49" />
      <line x1="403" x2="403" y1="19" style="fill:none;" y2="19" />
      <line x1="403" x2="406" y1="19" style="fill:none;" y2="19" />
      <line x1="406" x2="414" y1="19" style="fill:none;" y2="21" />
      <line x1="414" x2="422" y1="21" style="fill:none;" y2="23" />
      <line x1="422" x2="426" y1="23" style="fill:none;" y2="25" />
      <line x1="426" x2="428" y1="25" style="fill:none;" y2="27" />
      <line x1="428" x2="428" y1="27" style="fill:none;" y2="27" />
      <line x1="428" x2="429" y1="27" style="fill:none;" y2="28" />
      <polygon style="stroke:none;" points=" 439 36 434 27 429 33 439 36" />
      <line x1="439" x2="429" y1="36" style="fill:none;" y2="28" />
      <line x1="403" x2="403" y1="54" style="fill:none;" y2="54" />
      <line x1="403" x2="406" y1="54" style="fill:none;" y2="54" />
      <line x1="406" x2="412" y1="54" style="fill:none;" y2="55" />
      <line x1="412" x2="416" y1="55" style="fill:none;" y2="56" />
      <line x1="416" x2="420" y1="56" style="fill:none;" y2="56" />
      <line x1="420" x2="423" y1="56" style="fill:none;" y2="55" />
      <line x1="423" x2="425" y1="55" style="fill:none;" y2="53" />
      <line x1="425" x2="428" y1="53" style="fill:none;" y2="51" />
      <line x1="428" x2="429" y1="51" style="fill:none;" y2="50" />
      <line x1="429" x2="430" y1="50" style="fill:none;" y2="50" />
      <polygon style="stroke:none;" points=" 439 41 430 45 435 50 439 41" />
      <line x1="439" x2="430" y1="41" style="fill:none;" y2="50" />
      <line x1="364" x2="397" y1="125" style="fill:none;" y2="125" />
      <line x1="49" x2="88" y1="128" style="fill:none;" y2="128" />
      <line x1="305" x2="344" y1="43" style="fill:none;" y2="43" />
      <circle style="fill:blue; stroke:none;" r="9.5" cx="523.5" cy="124.5" />
      <circle style="fill:blue; stroke:none;" r="9.5" cx="486.5" cy="124.5" />
      <circle style="fill:blue; stroke:none;" r="9.5" cx="140.5" cy="12.5" />
      <circle style="fill:blue; stroke:none;" r="9.5" cx="115.5" cy="48.5" />
      <circle style="fill:blue; stroke:none;" r="9.5" cx="10.5" cy="48.5" />
      <circle style="fill:blue; stroke:none;" r="9.5" cx="328.5" cy="124.5" />
      <circle style="fill:blue; stroke:none;" r="9.5" cx="9.5" cy="127.5" />
      <circle style="fill:blue; stroke:none;" r="9.5" cx="402.5" cy="18.5" />
      <circle style="fill:blue; stroke:none;" r="9.5" cx="261.5" cy="42.5" />
      <circle style="fill:blue; stroke:none;" r="9.5" cx="402.5" cy="53.5" />
      <circle style="fill:blue; stroke:none;" r="9.5" cx="520.5" cy="28.5" />
      <circle style="fill:rgb(255,153,0); stroke:none;" r="9.5" cx="264.5" cy="126.5" />
      <circle style="fill:rgb(255,153,0); stroke:none;" r="9.5" cx="235.5" cy="126.5" />
      <circle style="fill:rgb(255,153,0); stroke:none;" r="9.5" cx="295.5" cy="125.5" />
      <circle style="fill:rgb(255,153,0); stroke:none;" r="9.5" cx="204.5" cy="126.5" />
      <circle style="fill:rgb(255,153,0); stroke:none;" r="9.5" cx="175.5" cy="125.5" />
      <polygon style="fill:red; stroke:none;" points=" 39 128 59 118 59 138" />
      <polygon style="fill:red; stroke:none;" points=" 295 43 315 33 315 53" />
      <polygon style="fill:red; stroke:none;" points=" 354 125 374 115 374 135" />
      <polygon style="stroke:none;" points=" 102 13 82 3 82 23" />
      <polygon style="stroke:none;" points=" 214 49 194 39 194 59" />
      <polygon style="stroke:none;" points=" 144 96 124 86 124 106" />
      <polygon style="stroke:none;" points=" 142 160 122 150 122 170" />
      <polygon style="stroke:none;" points=" 450 125 430 115 430 135" />
      <polygon style="stroke:none;" points=" 492 29 472 19 472 39" />
      <rect x="57" y="34" width="6" style="fill:blue; stroke:none;" rx="3" ry="3" height="30" />
      <rect x="159" y="34" width="6" style="fill:blue; stroke:none;" rx="3" ry="3" height="30" />
      <rect x="439" y="23" width="6" style="fill:blue; stroke:none;" rx="3" ry="3" height="30" />
      <rect x="396" y="110" width="3" style="fill:blue; stroke:none;" rx="1.5" ry="1.5" height="30" />
      <rect x="84" y="113" width="3" style="fill:blue; stroke:none;" rx="1.5" ry="1.5" height="30" />
      <circle style="fill:blue; stroke:none;" r="3" cx="90" cy="122" />
      <circle style="fill:blue; stroke:none;" r="3" cx="90" cy="134" />
      <rect x="343" y="28" width="3" style="fill:blue; stroke:none;" rx="1.5" ry="1.5" height="30" />
    </g>
  </g>
</svg>
