<?xml version="1.0" encoding="UTF-8"?>

<!DOCTYPE svg PUBLIC '-//W3C//DTD SVG 1.0//EN' 'http://www.w3.org/TR/2001/REC-SVG-20010904/DTD/svg10.dtd'>
<svg style="fill-opacity:1; color-rendering:auto; color-interpolation:auto; text-rendering:auto; stroke:black; stroke-linecap:square; stroke-miterlimit:10; shape-rendering:auto; stroke-opacity:1; fill:black; stroke-dasharray:none; font-weight:normal; stroke-width:1; font-family:&apos;Dialog&apos;; font-style:normal; stroke-linejoin:miter; font-size:12; stroke-dashoffset:0; image-rendering:auto;" xmlns="http://www.w3.org/2000/svg" width="320.0" xmlns:xlink="http://www.w3.org/1999/xlink" height="184.0">
  <!--Generated by the Batik Graphics2D SVG Generator-->
  <defs id="genericDefs" />
  <g>
    <g style="fill:white; stroke:white;">
      <rect x="0" y="0" width="617" style="stroke:none;" height="400" />
    </g>
    <g style="font-family:sans-serif; font-size:14;">
      <text xml:space="preserve" x="51" y="177" style="stroke:none;">WF</text>
      <text xml:space="preserve" x="47" y="44" style="stroke:none;">TU</text>
      <text xml:space="preserve" x="167" y="102" style="stroke:none;">T0</text>
      <text xml:space="preserve" x="198" y="102" style="stroke:none;">H0</text>
      <text xml:space="preserve" x="238" y="103" style="stroke:none;">DP</text>
      <text xml:space="preserve" x="267" y="103" style="stroke:none;">T0d</text>
      <text xml:space="preserve" x="9" y="45" style="stroke:none;">tw</text>
      <text xml:space="preserve" x="303" y="102" style="stroke:none;">te</text>
      <text xml:space="preserve" x="0" y="102" style="stroke:none;">toTUtw</text>
      <text xml:space="preserve" x="108" y="38" style="stroke:none;">Var00</text>
      <text xml:space="preserve" x="108" y="86" style="stroke:none;">Var10</text>
      <text xml:space="preserve" x="108" y="134" style="stroke:none;">Var01</text>
      <text xml:space="preserve" x="108" y="182" style="stroke:none;">Var11</text>
      <text xml:space="preserve" x="49" y="119" style="stroke:none;">TWU</text>
      <text xml:space="preserve" x="7" y="182" style="stroke:none;">TWF</text>
      <text xml:space="preserve" x="51" y="177" style="stroke:none;">WF</text>
      <text xml:space="preserve" x="47" y="44" style="stroke:none;">TU</text>
      <text xml:space="preserve" x="167" y="102" style="stroke:none;">T0</text>
      <text xml:space="preserve" x="198" y="102" style="stroke:none;">H0</text>
      <text xml:space="preserve" x="238" y="103" style="stroke:none;">DP</text>
      <text xml:space="preserve" x="267" y="103" style="stroke:none;">T0d</text>
      <text xml:space="preserve" x="9" y="45" style="stroke:none;">tw</text>
      <text xml:space="preserve" x="303" y="102" style="stroke:none;">te</text>
      <text xml:space="preserve" x="0" y="102" style="stroke:none;">toTUtw</text>
      <text xml:space="preserve" x="108" y="38" style="stroke:none;">Var00</text>
      <text xml:space="preserve" x="108" y="86" style="stroke:none;">Var10</text>
      <text xml:space="preserve" x="108" y="134" style="stroke:none;">Var01</text>
      <text xml:space="preserve" x="108" y="182" style="stroke:none;">Var11</text>
      <text xml:space="preserve" x="49" y="119" style="stroke:none;">TWU</text>
      <text xml:space="preserve" x="7" y="182" style="stroke:none;">TWF</text>
      <line x1="21" x2="42" y1="155" style="fill:none;" y2="155" />
      <polygon style="stroke:none;" points=" 51 155 42 151 42 159 51 155" />
      <line x1="51" x2="42" y1="155" style="fill:none;" y2="155" />
      <line x1="128" x2="129" y1="16" style="fill:none;" y2="16" />
      <line x1="129" x2="136" y1="16" style="fill:none;" y2="16" />
      <line x1="136" x2="151" y1="16" style="fill:none;" y2="16" />
      <line x1="151" x2="160" y1="16" style="fill:none;" y2="17" />
      <line x1="160" x2="164" y1="17" style="fill:none;" y2="19" />
      <line x1="164" x2="167" y1="19" style="fill:none;" y2="20" />
      <line x1="167" x2="170" y1="20" style="fill:none;" y2="22" />
      <line x1="170" x2="171" y1="22" style="fill:none;" y2="24" />
      <line x1="171" x2="173" y1="24" style="fill:none;" y2="27" />
      <line x1="173" x2="174" y1="27" style="fill:none;" y2="30" />
      <line x1="174" x2="174" y1="30" style="fill:none;" y2="44" />
      <line x1="174" x2="175" y1="44" style="fill:none;" y2="60" />
      <line x1="175" x2="175" y1="60" style="fill:none;" y2="73" />
      <line x1="175" x2="175" y1="73" style="fill:none;" y2="79" />
      <line x1="175" x2="176" y1="79" style="fill:none;" y2="80" />
      <line x1="128" x2="160" y1="64" style="fill:none;" y2="64" />
      <line x1="160" x2="176" y1="64" style="fill:none;" y2="80" />
      <line x1="128" x2="154" y1="112" style="fill:none;" y2="112" />
      <line x1="154" x2="156" y1="112" style="fill:none;" y2="93" />
      <line x1="156" x2="176" y1="93" style="fill:none;" y2="80" />
      <line x1="128" x2="149" y1="160" style="fill:none;" y2="160" />
      <line x1="149" x2="151" y1="160" style="fill:none;" y2="90" />
      <line x1="151" x2="176" y1="90" style="fill:none;" y2="80" />
      <line x1="128" x2="129" y1="16" style="fill:none;" y2="16" />
      <line x1="129" x2="141" y1="16" style="fill:none;" y2="16" />
      <line x1="141" x2="167" y1="16" style="fill:none;" y2="16" />
      <line x1="167" x2="194" y1="16" style="fill:none;" y2="19" />
      <line x1="194" x2="198" y1="19" style="fill:none;" y2="21" />
      <line x1="198" x2="201" y1="21" style="fill:none;" y2="23" />
      <line x1="201" x2="203" y1="23" style="fill:none;" y2="25" />
      <line x1="203" x2="204" y1="25" style="fill:none;" y2="27" />
      <line x1="204" x2="205" y1="27" style="fill:none;" y2="41" />
      <line x1="205" x2="206" y1="41" style="fill:none;" y2="58" />
      <line x1="206" x2="207" y1="58" style="fill:none;" y2="73" />
      <line x1="207" x2="207" y1="73" style="fill:none;" y2="79" />
      <line x1="207" x2="208" y1="79" style="fill:none;" y2="80" />
      <line x1="128" x2="192" y1="64" style="fill:none;" y2="64" />
      <line x1="192" x2="208" y1="64" style="fill:none;" y2="80" />
      <line x1="128" x2="190" y1="112" style="fill:none;" y2="112" />
      <line x1="190" x2="192" y1="112" style="fill:none;" y2="91" />
      <line x1="192" x2="208" y1="91" style="fill:none;" y2="80" />
      <line x1="128" x2="182" y1="160" style="fill:none;" y2="160" />
      <line x1="182" x2="189" y1="160" style="fill:none;" y2="87" />
      <line x1="189" x2="208" y1="87" style="fill:none;" y2="80" />
      <line x1="128" x2="129" y1="16" style="fill:none;" y2="16" />
      <line x1="129" x2="142" y1="16" style="fill:none;" y2="16" />
      <line x1="142" x2="172" y1="16" style="fill:none;" y2="16" />
      <line x1="172" x2="204" y1="16" style="fill:none;" y2="19" />
      <line x1="204" x2="214" y1="19" style="fill:none;" y2="22" />
      <line x1="214" x2="222" y1="22" style="fill:none;" y2="25" />
      <line x1="222" x2="232" y1="25" style="fill:none;" y2="33" />
      <line x1="232" x2="241" y1="33" style="fill:none;" y2="42" />
      <line x1="241" x2="244" y1="42" style="fill:none;" y2="47" />
      <line x1="244" x2="247" y1="47" style="fill:none;" y2="53" />
      <line x1="247" x2="249" y1="53" style="fill:none;" y2="66" />
      <line x1="249" x2="248" y1="66" style="fill:none;" y2="76" />
      <line x1="248" x2="248" y1="76" style="fill:none;" y2="80" />
      <line x1="248" x2="248" y1="80" style="fill:none;" y2="81" />
      <line x1="128" x2="232" y1="64" style="fill:none;" y2="64" />
      <line x1="232" x2="248" y1="64" style="fill:none;" y2="81" />
      <line x1="128" x2="226" y1="112" style="fill:none;" y2="112" />
      <line x1="226" x2="234" y1="112" style="fill:none;" y2="96" />
      <line x1="234" x2="248" y1="96" style="fill:none;" y2="81" />
      <line x1="128" x2="211" y1="160" style="fill:none;" y2="160" />
      <line x1="211" x2="226" y1="160" style="fill:none;" y2="97" />
      <line x1="226" x2="248" y1="97" style="fill:none;" y2="81" />
      <line x1="128" x2="129" y1="16" style="fill:none;" y2="15" />
      <line x1="129" x2="141" y1="15" style="fill:none;" y2="15" />
      <line x1="141" x2="170" y1="15" style="fill:none;" y2="15" />
      <line x1="170" x2="205" y1="15" style="fill:none;" y2="16" />
      <line x1="205" x2="235" y1="16" style="fill:none;" y2="20" />
      <line x1="235" x2="256" y1="20" style="fill:none;" y2="26" />
      <line x1="256" x2="263" y1="26" style="fill:none;" y2="30" />
      <line x1="263" x2="268" y1="30" style="fill:none;" y2="36" />
      <line x1="268" x2="272" y1="36" style="fill:none;" y2="42" />
      <line x1="272" x2="275" y1="42" style="fill:none;" y2="48" />
      <line x1="275" x2="278" y1="48" style="fill:none;" y2="63" />
      <line x1="278" x2="279" y1="63" style="fill:none;" y2="75" />
      <line x1="279" x2="279" y1="75" style="fill:none;" y2="80" />
      <line x1="279" x2="280" y1="80" style="fill:none;" y2="81" />
      <line x1="128" x2="263" y1="64" style="fill:none;" y2="64" />
      <line x1="263" x2="280" y1="64" style="fill:none;" y2="81" />
      <line x1="128" x2="261" y1="112" style="fill:none;" y2="112" />
      <line x1="261" x2="264" y1="112" style="fill:none;" y2="93" />
      <line x1="264" x2="280" y1="93" style="fill:none;" y2="81" />
      <line x1="128" x2="248" y1="160" style="fill:none;" y2="160" />
      <line x1="248" x2="261" y1="160" style="fill:none;" y2="89" />
      <line x1="261" x2="280" y1="89" style="fill:none;" y2="81" />
      <line x1="128" x2="287" y1="64" style="fill:none;" y2="64" />
      <line x1="287" x2="310" y1="64" style="fill:none;" y2="80" />
      <line x1="128" x2="130" y1="16" style="fill:none;" y2="16" />
      <line x1="130" x2="148" y1="16" style="fill:none;" y2="16" />
      <line x1="148" x2="191" y1="16" style="fill:none;" y2="16" />
      <line x1="191" x2="236" y1="16" style="fill:none;" y2="19" />
      <line x1="236" x2="252" y1="19" style="fill:none;" y2="21" />
      <line x1="252" x2="264" y1="21" style="fill:none;" y2="25" />
      <line x1="264" x2="272" y1="25" style="fill:none;" y2="31" />
      <line x1="272" x2="279" y1="31" style="fill:none;" y2="38" />
      <line x1="279" x2="293" y1="38" style="fill:none;" y2="56" />
      <line x1="293" x2="304" y1="56" style="fill:none;" y2="72" />
      <line x1="304" x2="309" y1="72" style="fill:none;" y2="79" />
      <line x1="309" x2="310" y1="79" style="fill:none;" y2="80" />
      <line x1="128" x2="292" y1="112" style="fill:none;" y2="112" />
      <line x1="292" x2="301" y1="112" style="fill:none;" y2="105" />
      <line x1="301" x2="301" y1="105" style="fill:none;" y2="94" />
      <line x1="301" x2="310" y1="94" style="fill:none;" y2="80" />
      <line x1="128" x2="288" y1="160" style="fill:none;" y2="160" />
      <line x1="288" x2="297" y1="160" style="fill:none;" y2="133" />
      <line x1="297" x2="297" y1="133" style="fill:none;" y2="91" />
      <line x1="297" x2="310" y1="91" style="fill:none;" y2="80" />
      <line x1="57" x2="56" y1="22" style="fill:none;" y2="22" />
      <line x1="56" x2="52" y1="22" style="fill:none;" y2="25" />
      <line x1="52" x2="44" y1="25" style="fill:none;" y2="31" />
      <line x1="44" x2="39" y1="31" style="fill:none;" y2="37" />
      <line x1="39" x2="34" y1="37" style="fill:none;" y2="43" />
      <line x1="34" x2="28" y1="43" style="fill:none;" y2="59" />
      <line x1="28" x2="25" y1="59" style="fill:none;" y2="73" />
      <line x1="25" x2="24" y1="73" style="fill:none;" y2="79" />
      <line x1="24" x2="24" y1="79" style="fill:none;" y2="80" />
      <line x1="18" x2="18" y1="23" style="fill:none;" y2="23" />
      <line x1="18" x2="20" y1="23" style="fill:none;" y2="24" />
      <line x1="20" x2="23" y1="24" style="fill:none;" y2="25" />
      <line x1="23" x2="26" y1="25" style="fill:none;" y2="26" />
      <line x1="26" x2="27" y1="26" style="fill:none;" y2="28" />
      <line x1="27" x2="29" y1="28" style="fill:none;" y2="29" />
      <line x1="29" x2="30" y1="29" style="fill:none;" y2="30" />
      <line x1="30" x2="30" y1="30" style="fill:none;" y2="32" />
      <line x1="30" x2="31" y1="32" style="fill:none;" y2="34" />
      <line x1="31" x2="31" y1="34" style="fill:none;" y2="36" />
      <line x1="31" x2="30" y1="36" style="fill:none;" y2="41" />
      <line x1="30" x2="27" y1="41" style="fill:none;" y2="53" />
      <line x1="27" x2="25" y1="53" style="fill:none;" y2="65" />
      <line x1="25" x2="24" y1="65" style="fill:none;" y2="75" />
      <line x1="24" x2="24" y1="75" style="fill:none;" y2="79" />
      <line x1="24" x2="24" y1="79" style="fill:none;" y2="80" />
      <line x1="310" x2="309" y1="80" style="fill:none;" y2="79" />
      <line x1="309" x2="308" y1="79" style="fill:none;" y2="75" />
      <line x1="308" x2="304" y1="75" style="fill:none;" y2="65" />
      <line x1="304" x2="297" y1="65" style="fill:none;" y2="49" />
      <line x1="297" x2="287" y1="49" style="fill:none;" y2="31" />
      <line x1="287" x2="279" y1="31" style="fill:none;" y2="22" />
      <line x1="279" x2="270" y1="22" style="fill:none;" y2="15" />
      <line x1="270" x2="258" y1="15" style="fill:none;" y2="10" />
      <line x1="258" x2="243" y1="10" style="fill:none;" y2="7" />
      <line x1="243" x2="202" y1="7" style="fill:none;" y2="4" />
      <line x1="202" x2="147" y1="4" style="fill:none;" y2="3" />
      <line x1="147" x2="95" y1="3" style="fill:none;" y2="3" />
      <line x1="95" x2="63" y1="3" style="fill:none;" y2="5" />
      <line x1="63" x2="47" y1="5" style="fill:none;" y2="9" />
      <line x1="47" x2="45" y1="9" style="fill:none;" y2="10" />
      <line x1="45" x2="43" y1="10" style="fill:none;" y2="11" />
      <line x1="43" x2="41" y1="11" style="fill:none;" y2="13" />
      <line x1="41" x2="40" y1="13" style="fill:none;" y2="15" />
      <line x1="40" x2="35" y1="15" style="fill:none;" y2="28" />
      <line x1="35" x2="30" y1="28" style="fill:none;" y2="49" />
      <line x1="30" x2="26" y1="49" style="fill:none;" y2="70" />
      <line x1="26" x2="24" y1="70" style="fill:none;" y2="78" />
      <line x1="24" x2="24" y1="78" style="fill:none;" y2="80" />
      <line x1="64" x2="64" y1="62" style="fill:none;" y2="61" />
      <line x1="64" x2="66" y1="61" style="fill:none;" y2="57" />
      <line x1="66" x2="73" y1="57" style="fill:none;" y2="46" />
      <line x1="73" x2="78" y1="46" style="fill:none;" y2="40" />
      <line x1="78" x2="85" y1="40" style="fill:none;" y2="34" />
      <line x1="85" x2="103" y1="34" style="fill:none;" y2="24" />
      <line x1="103" x2="120" y1="24" style="fill:none;" y2="18" />
      <line x1="120" x2="127" y1="18" style="fill:none;" y2="16" />
      <line x1="127" x2="128" y1="16" style="fill:none;" y2="16" />
      <line x1="64" x2="64" y1="74" style="fill:none;" y2="73" />
      <line x1="64" x2="69" y1="73" style="fill:none;" y2="72" />
      <line x1="69" x2="80" y1="72" style="fill:none;" y2="69" />
      <line x1="80" x2="96" y1="69" style="fill:none;" y2="65" />
      <line x1="96" x2="111" y1="65" style="fill:none;" y2="64" />
      <line x1="111" x2="122" y1="64" style="fill:none;" y2="64" />
      <line x1="122" x2="127" y1="64" style="fill:none;" y2="64" />
      <line x1="127" x2="128" y1="64" style="fill:none;" y2="64" />
      <line x1="64" x2="64" y1="86" style="fill:none;" y2="86" />
      <line x1="64" x2="66" y1="86" style="fill:none;" y2="87" />
      <line x1="66" x2="73" y1="87" style="fill:none;" y2="91" />
      <line x1="73" x2="85" y1="91" style="fill:none;" y2="97" />
      <line x1="85" x2="103" y1="97" style="fill:none;" y2="103" />
      <line x1="103" x2="120" y1="103" style="fill:none;" y2="109" />
      <line x1="120" x2="127" y1="109" style="fill:none;" y2="111" />
      <line x1="127" x2="128" y1="111" style="fill:none;" y2="112" />
      <line x1="64" x2="64" y1="98" style="fill:none;" y2="98" />
      <line x1="64" x2="69" y1="98" style="fill:none;" y2="100" />
      <line x1="69" x2="80" y1="100" style="fill:none;" y2="106" />
      <line x1="80" x2="85" y1="106" style="fill:none;" y2="110" />
      <line x1="85" x2="88" y1="110" style="fill:none;" y2="114" />
      <line x1="88" x2="90" y1="114" style="fill:none;" y2="117" />
      <line x1="90" x2="96" y1="117" style="fill:none;" y2="135" />
      <line x1="96" x2="98" y1="135" style="fill:none;" y2="144" />
      <line x1="98" x2="99" y1="144" style="fill:none;" y2="148" />
      <line x1="99" x2="101" y1="148" style="fill:none;" y2="152" />
      <line x1="101" x2="103" y1="152" style="fill:none;" y2="154" />
      <line x1="103" x2="106" y1="154" style="fill:none;" y2="156" />
      <line x1="106" x2="112" y1="156" style="fill:none;" y2="159" />
      <line x1="112" x2="122" y1="159" style="fill:none;" y2="160" />
      <line x1="122" x2="127" y1="160" style="fill:none;" y2="160" />
      <line x1="127" x2="128" y1="160" style="fill:none;" y2="160" />
      <line x1="24" x2="64" y1="80" style="fill:none;" y2="80" />
      <circle style="fill:blue; stroke:none;" r="9.5" cx="60.5" cy="154.5" />
      <circle style="fill:blue; stroke:none;" r="9.5" cx="56.5" cy="21.5" />
      <circle style="fill:rgb(255,153,0); stroke:none;" r="9.5" cx="175.5" cy="79.5" />
      <circle style="fill:rgb(255,153,0); stroke:none;" r="9.5" cx="207.5" cy="79.5" />
      <circle style="fill:rgb(255,153,0); stroke:none;" r="9.5" cx="247.5" cy="80.5" />
      <circle style="fill:rgb(255,153,0); stroke:none;" r="9.5" cx="279.5" cy="80.5" />
      <circle style="fill:rgb(255,153,0); stroke:none;" r="9.5" cx="17.5" cy="22.5" />
      <circle style="fill:rgb(255,153,0); stroke:none;" r="9.5" cx="309.5" cy="79.5" />
      <polygon style="fill:red; stroke:none;" points=" 14 80 34 70 34 90" />
      <polygon style="stroke:none;" points=" 138 16 118 6 118 26" />
      <polygon style="stroke:none;" points=" 138 64 118 54 118 74" />
      <polygon style="stroke:none;" points=" 138 112 118 102 118 122" />
      <polygon style="stroke:none;" points=" 138 160 118 150 118 170" />
      <rect x="58" y="53" width="6" style="fill:blue; stroke:none;" rx="3" ry="3" height="54" />
      <circle style="fill:blue; stroke:none;" r="3" cx="67" cy="62" />
      <circle style="fill:blue; stroke:none;" r="3" cx="67" cy="74" />
      <circle style="fill:blue; stroke:none;" r="3" cx="67" cy="86" />
      <circle style="fill:blue; stroke:none;" r="3" cx="67" cy="98" />
      <rect x="18" y="140" width="6" style="fill:blue; stroke:none;" rx="3" ry="3" height="30" />
    </g>
  </g>
</svg>
